<svg xmlns="http://www.w3.org/2000/svg" xmlns:xlink="http://www.w3.org/1999/xlink" xmlns:fi="http://pattern.flaticon.com/" x="0" y="0" width="1600" height="800" viewBox="0 0 1400 700"><rect x="0px" y="0px" width="100%" height="100%" opacity="1" fill="#ffffff"/><defs><g transform="matrix(0.1171875 0 0 0.1171875 33 83)" id="L1_58"><path d="M353.103,512H123.586c-9.751,0-17.655-7.904-17.655-17.655V17.655C105.931,7.904,113.835,0,123.586,0  h264.828c9.751,0,17.655,7.904,17.655,17.655v441.379C406.069,488.287,382.356,512,353.103,512z" fill="#e4eaf6"/><path d="M353.103,238.345h-220.69c-4.875,0-8.828-3.953-8.828-8.828V44.138c0-4.875,3.953-8.828,8.828-8.828  h247.172c4.875,0,8.828,3.953,8.828,8.828v158.897C388.414,222.536,372.605,238.345,353.103,238.345z" fill="#707487"/><path d="M189.793,313.379h-17.655v-17.655c0-2.438-1.976-4.414-4.414-4.414h-17.655  c-2.438,0-4.414,1.976-4.414,4.414v17.655H128c-2.438,0-4.414,1.976-4.414,4.414v17.655c0,2.438,1.976,4.414,4.414,4.414h17.655  v17.655c0,2.438,1.976,4.414,4.414,4.414h17.655c2.438,0,4.414-1.976,4.414-4.414v-17.655h17.655c2.438,0,4.414-1.976,4.414-4.414  v-17.655C194.207,315.356,192.231,313.379,189.793,313.379z" fill="#464655"/><path d="M317.802,361.94c-10.508,0-20.457-6.302-24.595-16.655c-5.431-13.582,1.173-28.991,14.75-34.426  l44.138-17.655c13.578-5.418,29,1.176,34.422,14.754c5.431,13.582-1.173,28.991-14.75,34.426l-44.138,17.655  C324.405,361.327,321.078,361.94,317.802,361.94z" fill="#d7deed"/><g><path d="M211.862,416.408c-3.5,0-6.819-2.099-8.199-5.551c-1.811-4.526,0.388-9.664,4.922-11.474   l25.818-10.332c4.483-1.815,9.664,0.38,11.474,4.914c1.811,4.526-0.396,9.664-4.922,11.474l-25.818,10.332   C214.069,416.202,212.957,416.408,211.862,416.408z" fill="#707487"/><path d="M265.483,417.917c-3.5,0-6.819-2.103-8.199-5.556c-1.811-4.526,0.396-9.664,4.922-11.474   l25.827-10.327c4.491-1.784,9.664,0.388,11.474,4.922c1.811,4.526-0.396,9.664-4.922,11.474l-25.827,10.327   C267.69,417.71,266.578,417.917,265.483,417.917z" fill="#707487"/></g><g><circle cx="317" cy="335" r="17" fill="#ff6464"/><circle cx="361" cy="317" r="17" fill="#ff6464"/></g><g><path d="M382.163,472.29c-1.75,0-3.405-1.047-4.095-2.776L362.601,430.6   c-0.905-2.263,0.19-4.832,2.457-5.737c2.259-0.918,4.828,0.194,5.732,2.461l15.467,38.914c0.905,2.263-0.19,4.832-2.457,5.737   C383.266,472.191,382.706,472.29,382.163,472.29z" fill="#d7deed"/><path d="M366.947,478.76c-1.75,0-3.405-1.047-4.095-2.776l-15.467-38.914   c-0.905-2.263,0.19-4.832,2.457-5.737c2.241-0.909,4.828,0.194,5.732,2.461l15.467,38.914c0.905,2.263-0.19,4.832-2.457,5.737   C368.051,478.66,367.49,478.76,366.947,478.76z" fill="#d7deed"/><path d="M351.731,485.23c-1.75,0-3.405-1.047-4.095-2.776l-15.467-38.914   c-0.905-2.263,0.19-4.832,2.457-5.737c2.241-0.918,4.828,0.199,5.732,2.461l15.467,38.914c0.905,2.263-0.19,4.832-2.457,5.737   C352.834,485.131,352.275,485.23,351.731,485.23z" fill="#d7deed"/><path d="M336.515,491.704c-1.75,0-3.405-1.047-4.095-2.776l-15.467-38.914   c-0.905-2.263,0.19-4.832,2.457-5.737c2.241-0.914,4.828,0.199,5.732,2.461l15.467,38.914c0.905,2.263-0.19,4.832-2.457,5.737   C337.619,491.605,337.059,491.704,336.515,491.704z" fill="#d7deed"/><path d="M321.3,498.174c-1.75,0-3.405-1.047-4.095-2.776l-15.467-38.914   c-0.905-2.263,0.19-4.832,2.457-5.737c2.25-0.922,4.828,0.194,5.732,2.461l15.467,38.914c0.905,2.263-0.19,4.832-2.457,5.737   C322.403,498.074,321.844,498.174,321.3,498.174z" fill="#d7deed"/></g><path d="M335.448,220.69H176.552c-4.875,0-8.828-3.953-8.828-8.828V61.793c0-4.875,3.953-8.828,8.828-8.828  h158.897c4.875,0,8.828,3.953,8.828,8.828v150.069C344.276,216.737,340.323,220.69,335.448,220.69z" fill="#bedcaf"/><path d="M269.241,498.759h-26.483c-4.875,0-8.828-3.953-8.828-8.828l0,0c0-4.875,3.953-8.828,8.828-8.828  h26.483c4.875,0,8.828,3.953,8.828,8.828l0,0C278.069,494.806,274.116,498.759,269.241,498.759z" fill="#d7deed"/><circle cx="158" cy="326" r="8" fill="#5b5d6e"/></g><g transform="matrix(0.1171875 0 0 0.1171875 67 4)" id="L1_59"><g><path d="M132.412,467.862L132.412,467.862c-4.875,0-8.828-3.953-8.828-8.828V335.446   c0-4.875,3.953-8.828,8.828-8.828l0,0c4.875,0,8.828,3.953,8.828,8.828v123.588C141.24,463.909,137.287,467.862,132.412,467.862z" fill="#ffe164"/><path d="M379.589,467.862L379.589,467.862c-4.875,0-8.828-3.953-8.828-8.828V335.446   c0-4.875,3.953-8.828,8.828-8.828l0,0c4.875,0,8.828,3.953,8.828,8.828v123.588C388.417,463.909,384.464,467.862,379.589,467.862z" fill="#ffe164"/><path d="M344.278,370.756L344.278,370.756c-4.875,0-8.828-3.953-8.828-8.828v-97.105   c0-4.875,3.953-8.828,8.828-8.828l0,0c4.875,0,8.828,3.953,8.828,8.828v97.105C353.106,366.804,349.153,370.756,344.278,370.756z" fill="#ffe164"/><path d="M167.723,370.756L167.723,370.756c-4.875,0-8.828-3.953-8.828-8.828v-97.105   c0-4.875,3.953-8.828,8.828-8.828l0,0c4.875,0,8.828,3.953,8.828,8.828v97.105C176.551,366.804,172.598,370.756,167.723,370.756z" fill="#ffe164"/></g><path d="M256,150.063l-125.79,100.632c-4.188,3.35-6.626,8.423-6.626,13.787v44.481L256,282.479  l132.416,26.483v-44.481c0-5.364-2.438-10.437-6.626-13.787L256,150.063z" fill="#ff6464"/><path d="M225.103,361.906c0,29.551,3.571,93.193,24.392,145.365c2.516,6.305,10.494,6.305,13.01,0  c20.821-52.172,24.392-115.814,24.392-145.365H225.103z" fill="#ffe164"/><path d="M238.345,361.906c0,14.173,2.452,46.271,17.655,70.032c15.204-23.761,17.655-55.859,17.655-70.032  H238.345z" fill="#ffffff"/><path d="M299.876,350.958l-10.499-41.997h-66.753l-10.499,41.997c-0.66,2.638-0.065,5.431,1.608,7.573  s4.237,3.396,6.957,3.396h70.622c2.72,0,5.285-1.255,6.957-3.396C299.942,356.389,300.535,353.596,299.876,350.958z" fill="#959cb3"/><path d="M238.609,350.958l10.499-41.997h-26.483l-10.499,41.997c-0.66,2.638-0.065,5.431,1.608,7.573  s4.237,3.396,6.957,3.396h26.483c-2.72,0-5.285-1.255-6.957-3.396S237.949,353.596,238.609,350.958z" fill="#707487"/><path d="M248.639,4.316l-41.109,73.457c-2.948,5.269-4.497,11.207-4.497,17.245v213.945  c0,9.751,7.904,17.655,17.655,17.655h70.622c9.751,0,17.655-7.904,17.655-17.655V95.013c0-6.038-1.548-11.976-4.498-17.245  L263.362,4.316C260.141-1.439,251.86-1.439,248.639,4.316z" fill="#e4eaf6"/><path d="M238.345,308.962V95.018c0-6.038,0.644-11.976,1.874-17.244l17.128-73.457  c0.321-1.474,0.898-2.664,1.581-3.729c-3.669-1.35-8.118-0.15-10.289,3.729l-41.109,73.456c-2.948,5.269-4.497,11.206-4.497,17.244  v213.945c0,9.75,7.905,17.655,17.655,17.655h25.012C241.639,326.618,238.345,318.713,238.345,308.962z" fill="#c7cfe2"/><path d="M263.362,4.316c-3.22-5.753-11.501-5.753-14.721,0l-41.11,73.457  c-2.948,5.269-4.497,11.206-4.497,17.244v46.218h105.933V95.013c0-6.038-1.548-11.976-4.498-17.245L263.362,4.316z" fill="#ff6464"/><path d="M238.345,95.018c0-6.038,0.644-11.976,1.874-17.244l17.128-73.457  c0.321-1.474,0.898-2.664,1.581-3.729c-1.788-0.658-3.755-0.686-5.559-0.119c-0.135,0.044-0.262,0.108-0.393,0.158  c-0.689,0.256-1.334,0.626-1.944,1.069c-0.19,0.14-0.386,0.269-0.566,0.428c-0.694,0.607-1.333,1.31-1.826,2.193l-41.109,73.456  c-2.948,5.269-4.497,11.206-4.497,17.244v46.218h35.311V95.018z" fill="#d2555a"/><path d="M308.967,141.235H203.034v17.655h22.637c6.089,10.511,17.302,17.655,30.33,17.655  c13.028,0,24.241-7.145,30.33-17.655h22.637V141.235z" fill="#c7cfe2"/><circle cx="256" cy="141" r="17" fill="#5b5d6e"/><path d="M238.345,171.716v-30.482h-35.311v17.655h22.637C228.736,164.182,233.105,168.613,238.345,171.716z" fill="#afb9d2"/><path d="M248.64,4.316l-32.162,57.47h79.047l-32.164-57.47C260.141-1.439,251.86-1.439,248.64,4.316z" fill="#707487"/><path d="M243.947,61.786l13.401-57.47c0.321-1.474,0.898-2.664,1.581-3.729  c-1.788-0.658-3.755-0.686-5.559-0.119c-0.036,0.012-0.072,0.031-0.108,0.044c-0.095,0.039-0.189,0.078-0.285,0.115  c-0.689,0.256-1.334,0.626-1.944,1.069c-0.066,0.049-0.131,0.102-0.198,0.149c-0.121,0.095-0.252,0.177-0.369,0.279  c-0.693,0.606-1.332,1.31-1.825,2.191l-32.162,57.47H243.947z" fill="#5b5d6e"/><g><path d="M123.584,308.962 203.034,293.072 203.034,255.996 123.584,277.182z" fill="#d2555a"/><path d="M388.417,308.962 308.967,293.072 308.967,255.996 388.417,277.182z" fill="#d2555a"/></g><g><path d="M132.412,264.824L132.412,264.824c-4.875,0-8.828,3.953-8.828,8.828v70.622   c0,4.875,3.953,8.828,8.828,8.828l0,0c4.875,0,8.828-3.953,8.828-8.828v-70.622C141.24,268.776,137.287,264.824,132.412,264.824z" fill="#afb9d2"/><path d="M167.723,255.996L167.723,255.996c-4.875,0-8.828,3.953-8.828,8.828v44.139   c0,4.875,3.953,8.828,8.828,8.828l0,0c4.875,0,8.828-3.953,8.828-8.828v-44.139C176.551,259.948,172.598,255.996,167.723,255.996z" fill="#afb9d2"/><path d="M379.589,264.824L379.589,264.824c4.875,0,8.828,3.953,8.828,8.828v70.622   c0,4.875-3.953,8.828-8.828,8.828l0,0c-4.875,0-8.828-3.953-8.828-8.828v-70.622C370.761,268.776,374.714,264.824,379.589,264.824z   " fill="#afb9d2"/><path d="M344.278,255.996L344.278,255.996c4.875,0,8.828,3.953,8.828,8.828v44.139   c0,4.875-3.953,8.828-8.828,8.828l0,0c-4.875,0-8.828-3.953-8.828-8.828v-44.139C335.45,259.948,339.403,255.996,344.278,255.996z" fill="#afb9d2"/></g><g><circle cx="132" cy="273" r="8" fill="#959cb3"/><circle cx="167" cy="264" r="8" fill="#959cb3"/><circle cx="379" cy="273" r="8" fill="#959cb3"/><circle cx="344" cy="264" r="8" fill="#959cb3"/></g><g><path d="M256,291.307L256,291.307c4.875,0,8.828-3.953,8.828-8.828v-35.311c0-4.875-3.953-8.828-8.828-8.828   l0,0c-4.875,0-8.828,3.953-8.828,8.828v35.311C247.173,287.354,251.125,291.307,256,291.307z" fill="#c7cfe2"/><path d="M282.484,291.307L282.484,291.307c4.875,0,8.828-3.953,8.828-8.828v-35.311   c0-4.875-3.953-8.828-8.828-8.828l0,0c-4.875,0-8.828,3.953-8.828,8.828v35.311C273.656,287.354,277.609,291.307,282.484,291.307z" fill="#c7cfe2"/></g><path d="M229.517,291.307L229.517,291.307c4.875,0,8.828-3.953,8.828-8.828v-35.311  c0-4.875-3.953-8.828-8.828-8.828l0,0c-4.875,0-8.828,3.953-8.828,8.828v35.311C220.689,287.354,224.642,291.307,229.517,291.307z" fill="#afb9d2"/></g><g transform="matrix(0.1171875 0 0 0.1171875 4 191)" id="L1_60"><path d="M209.638,244.628l129.736-95.594c6.241-4.599,7.204-13.545,2.155-19.428  c-40.358-47.019-102.755-74.557-171.218-66.385C81.862,73.778,10.999,145.353,1.223,233.893  c-12.937,117.155,78.443,216.313,192.983,216.313c58.996,0,111.782-26.358,147.389-67.889c5.021-5.856,3.992-14.775-2.218-19.35  L209.638,267.37C201.977,261.725,201.977,250.274,209.638,244.628z" fill="#ffd782"/><path d="M255.491,406.068c-114.54,0-205.92-99.157-192.984-216.313  c4.675-42.346,23.433-80.712,51.296-110.476C53.119,107.021,8.797,165.293,1.223,233.892  c-12.937,117.156,78.443,216.314,192.983,216.314c55.956,0,106.298-23.738,141.721-61.62  C311.421,399.783,284.203,406.068,255.491,406.068z" fill="#ffc36e"/><circle cx="397" cy="255" r="26" fill="#ffd782"/><path d="M408.275,269.241c-13.407,0-24.276-10.869-24.276-24.276c0-5.134,1.614-9.88,4.335-13.802  c-10.222,3.669-17.577,13.351-17.577,24.836c0,14.626,11.857,26.483,26.483,26.483c11.486,0,21.167-7.354,24.836-17.577  C418.156,267.625,413.41,269.241,408.275,269.241z" fill="#ffc36e"/><circle cx="485" cy="255" r="26" fill="#ffd782"/><path d="M496.551,269.241c-13.407,0-24.276-10.869-24.276-24.276c0-5.134,1.614-9.88,4.335-13.802  c-10.222,3.669-17.577,13.351-17.577,24.836c0,14.626,11.857,26.483,26.483,26.483c11.486,0,21.167-7.354,24.836-17.577  C506.432,267.625,501.686,269.241,496.551,269.241z" fill="#ffc36e"/><circle cx="308" cy="255" r="26" fill="#ffd782"/><path d="M320,269.241c-13.407,0-24.276-10.869-24.276-24.276c0-5.134,1.614-9.88,4.335-13.802  c-10.222,3.669-17.577,13.351-17.577,24.836c0,14.626,11.857,26.483,26.483,26.483c11.486,0,21.167-7.354,24.836-17.577  C329.88,267.625,325.134,269.241,320,269.241z" fill="#ffc36e"/><circle cx="220" cy="150" r="26" fill="#5b5d6e"/><path d="M231.724,163.31c-13.407,0-24.276-10.869-24.276-24.276c0-5.134,1.614-9.88,4.335-13.802  c-10.222,3.669-17.577,13.351-17.577,24.836c0,14.626,11.857,26.483,26.483,26.483c11.486,0,21.167-7.354,24.836-17.577  C241.604,161.694,236.858,163.31,231.724,163.31z" fill="#464655"/></g><g transform="matrix(0.1171875 0 0 0.1171875 145 125)" id="L1_61"><path d="M503.172,370.759H8.828c-4.875,0-8.828-3.953-8.828-8.828V150.069c0-4.875,3.953-8.828,8.828-8.828  h494.345c4.875,0,8.828,3.953,8.828,8.828v211.862C512,366.806,508.047,370.759,503.172,370.759z" fill="#e4eaf6"/><path d="M485.517,353.103H26.483c-4.875,0-8.828-3.953-8.828-8.828V185.379c0-4.875,3.953-8.828,8.828-8.828  h459.034c4.875,0,8.828,3.953,8.828,8.828v158.897C494.345,349.151,490.392,353.103,485.517,353.103z" fill="#515262"/><path d="M317.793,326.621H194.207c-4.875,0-8.828-3.953-8.828-8.828V291.31c0-4.875,3.953-8.828,8.828-8.828  h123.586c4.875,0,8.828,3.953,8.828,8.828v26.483C326.621,322.668,322.668,326.621,317.793,326.621z" fill="#e4eaf6"/><g><path d="M317.793,273.655H194.207c-4.875,0-8.828-3.953-8.828-8.828V256c0-4.875,3.953-8.828,8.828-8.828   h123.586c4.875,0,8.828,3.953,8.828,8.828v8.828C326.621,269.703,322.668,273.655,317.793,273.655z" fill="#707487"/><path d="M317.793,238.345H194.207c-4.875,0-8.828-3.953-8.828-8.828v-8.828c0-4.875,3.953-8.828,8.828-8.828   h123.586c4.875,0,8.828,3.953,8.828,8.828v8.828C326.621,234.392,322.668,238.345,317.793,238.345z" fill="#707487"/><path d="M317.793,203.034H194.207c-4.875,0-8.828-3.953-8.828-8.828v-17.655h141.241v17.655   C326.621,199.082,322.668,203.034,317.793,203.034z" fill="#707487"/><path d="M194.207,335.448h123.586c4.875,0,8.828,3.953,8.828,8.828v8.828H185.379v-8.828   C185.379,339.401,189.332,335.448,194.207,335.448z" fill="#707487"/></g><g><path d="M211.862,313.379h26.483c4.875,0,8.828-3.953,8.828-8.828l0,0c0-4.875-3.953-8.828-8.828-8.828   h-26.483c-4.875,0-8.828,3.953-8.828,8.828l0,0C203.034,309.427,206.987,313.379,211.862,313.379z" fill="#515262"/><path d="M273.655,313.379h26.483c4.875,0,8.828-3.953,8.828-8.828l0,0c0-4.875-3.953-8.828-8.828-8.828   h-26.483c-4.875,0-8.828,3.953-8.828,8.828l0,0C264.828,309.427,268.78,313.379,273.655,313.379z" fill="#515262"/></g><path d="M141.241,256h-22.069v-22.069c0-4.875-3.953-8.828-8.828-8.828H92.69  c-4.875,0-8.828,3.953-8.828,8.828V256H61.793c-4.875,0-8.828,3.953-8.828,8.828v17.655c0,4.875,3.953,8.828,8.828,8.828h22.069  v22.069c0,4.875,3.953,8.828,8.828,8.828h17.655c4.875,0,8.828-3.953,8.828-8.828V291.31h22.069c4.875,0,8.828-3.953,8.828-8.828  v-17.655C150.069,259.953,146.116,256,141.241,256z" fill="#464655"/><g><path d="M110.345,225.103c4.875,0,8.828,3.953,8.828,8.828V256h22.069c4.875,0,8.828,3.953,8.828,8.828   v17.655c0,4.875-3.953,8.828-8.828,8.828h-22.069v22.069c0,4.875-3.953,8.828-8.828,8.828H92.69c-4.876,0-8.828-3.953-8.828-8.828   V291.31H61.793c-4.876,0-8.828-3.953-8.828-8.828v-17.655c0-4.875,3.951-8.828,8.828-8.828h22.069v-22.069   c0-4.875,3.951-8.828,8.828-8.828H110.345 M110.345,216.276H92.69c-9.735,0-17.655,7.921-17.655,17.655v13.241H61.793   c-9.735,0-17.655,7.921-17.655,17.655v17.655c0,9.735,7.921,17.655,17.655,17.655h13.241v13.241   c0,9.735,7.921,17.655,17.655,17.655h17.655c9.735,0,17.655-7.921,17.655-17.655v-13.241h13.241   c9.735,0,17.655-7.921,17.655-17.655v-17.655c0-9.735-7.921-17.655-17.655-17.655H128v-13.241   C128,224.196,120.079,216.276,110.345,216.276L110.345,216.276z" fill="#e4eaf6"/><path d="M392.426,278.471h-30.495c-4.875,0-8.828,3.953-8.828,8.828v30.495c0,4.875,3.953,8.828,8.828,8.828   h30.495c4.875,0,8.828-3.953,8.828-8.828v-30.495C401.254,282.422,397.302,278.471,392.426,278.471z" fill="#e4eaf6"/><path d="M450.207,278.471h-30.495c-4.875,0-8.828,3.953-8.828,8.828v30.495c0,4.875,3.953,8.828,8.828,8.828   h30.495c4.875,0,8.828-3.953,8.828-8.828v-30.495C459.034,282.422,455.082,278.471,450.207,278.471z" fill="#e4eaf6"/></g><g><circle cx="377" cy="302" r="19" fill="#ff6464"/><circle cx="434" cy="302" r="19" fill="#ff6464"/></g><circle cx="101" cy="273" r="11" fill="#515262"/></g><g transform="matrix(0.1171872690320015 0 0 0.1171872690320015 142.00000054359327 201)" id="L1_62"><path d="M248.399,0.135C135.421,4.152,47.514,100.436,47.514,213.484V508.8c0,2.792,3.432,4.127,5.319,2.069  l57.191-62.39c3.756-4.098,10.216-4.098,13.971,0l55.336,60.365c3.858,4.209,10.493,4.209,14.35,0l55.334-60.365  c3.756-4.098,10.216-4.098,13.971,0l55.334,60.365c3.858,4.209,10.493,4.209,14.35,0l55.336-60.365  c3.756-4.098,10.216-4.098,13.971,0l57.191,62.39c1.887,2.059,5.319,0.724,5.319-2.069V208.486  C464.489,90.819,367.009-4.082,248.399,0.135z" fill="#ffa05a"/><path d="M151.758,227.632c0-107.205,79.072-199.275,183.593-211.938  C308.687,4.707,279.273-0.963,248.399,0.135C135.421,4.152,47.514,100.436,47.514,213.484V508.8c0,2.792,3.432,4.127,5.319,2.069  l57.191-62.39c3.755-4.098,10.216-4.098,13.971,0l27.762,30.285V227.632H151.758z" fill="#f08c46"/><path d="M186.385,303.255L186.385,303.255c-31.001,0-56.132-25.131-56.132-56.132v-20.412  c0-31.001,25.131-56.132,56.132-56.132l0,0c31.001,0,56.132,25.131,56.132,56.132v20.412  C242.515,278.124,217.385,303.255,186.385,303.255z" fill="#ffffff"/><path d="M217.002,293.049c-31.001,0-56.132-25.131-56.132-56.132v-20.412  c0-18.952,9.419-35.676,23.803-45.839c-30.201,0.912-54.421,25.621-54.421,56.045v20.412c0,31.001,25.131,56.132,56.132,56.132  c12.048,0,23.184-3.831,32.327-10.292C218.139,292.98,217.579,293.049,217.002,293.049z" fill="#e4eaf6"/><path d="M201.693,262.431L201.693,262.431c-11.273,0-20.412-9.138-20.412-20.412v-10.205  c0-11.273,9.138-20.412,20.412-20.412l0,0c11.273,0,20.412,9.138,20.412,20.412v10.205  C222.105,253.294,212.966,262.431,201.693,262.431z" fill="#82b9ff"/><path d="M325.619,303.255L325.619,303.255c-31.001,0-56.132-25.131-56.132-56.132v-20.412  c0-31.001,25.131-56.132,56.132-56.132l0,0c31.001,0,56.132,25.131,56.132,56.132v20.412  C381.75,278.124,356.619,303.255,325.619,303.255z" fill="#ffffff"/><path d="M356.236,293.049c-31.001,0-56.132-25.131-56.132-56.132v-20.412  c0-18.952,9.419-35.676,23.804-45.839c-30.201,0.912-54.421,25.621-54.421,56.045v20.412c0,31.001,25.131,56.132,56.132,56.132  c12.048,0,23.184-3.831,32.327-10.292C357.374,292.98,356.814,293.049,356.236,293.049z" fill="#e4eaf6"/><path d="M340.927,262.431L340.927,262.431c-11.273,0-20.412-9.138-20.412-20.412v-10.205  c0-11.273,9.138-20.412,20.412-20.412l0,0c11.273,0,20.412,9.138,20.412,20.412v10.205  C361.339,253.294,352.201,262.431,340.927,262.431z" fill="#82b9ff"/></g><g transform="matrix(0.1171875 0 0 0.1171875 247.00000021457674 293)" id="L1_63"><path d="M425.797,467.737l-40.17,4.791l-24.234,32.392c-7.593,10.15-23.09,9.228-29.427-1.749  L212.941,297.012l107.029-61.793l119.026,206.161C445.334,452.355,438.383,466.237,425.797,467.737z" fill="#ff6464"/><path d="M372.386,449.593L372.386,449.593c-4.222,2.438-9.621,0.991-12.059-3.231l-88.276-152.898  c-2.438-4.222-0.991-9.621,3.231-12.058l0,0c4.222-2.438,9.621-0.991,12.058,3.231l88.276,152.898  C378.055,441.757,376.608,447.156,372.386,449.593z" fill="#d2555a"/><path d="M86.202,467.737l40.17,4.791l24.234,32.392c7.593,10.15,23.09,9.228,29.427-1.749L299.06,297.012  l-107.029-61.793L73.004,441.379C66.666,452.355,73.617,466.237,86.202,467.737z" fill="#ff6464"/><g><path d="M398.597,371.407l-78.628-136.189H192.03l-78.628,136.189   c31.516,26.718,70.615,44.719,113.628,50.364L256,371.592l28.97,50.178C327.982,416.127,367.083,398.125,398.597,371.407z" fill="#d2555a"/><path d="M139.614,449.593L139.614,449.593c4.222,2.438,9.621,0.991,12.058-3.231l88.276-152.898   c2.438-4.222,0.991-9.621-3.231-12.058l0,0c-4.222-2.438-9.621-0.991-12.058,3.231l-88.276,152.898   C133.945,441.757,135.392,447.156,139.614,449.593z" fill="#d2555a"/></g><circle cx="256" cy="203" r="203" fill="#ffd782"/><g><path d="M335.448,326.621c-107.257,0-194.207-86.95-194.207-194.207c0-44.491,14.995-85.46,40.161-118.206   C106.194,43.947,52.965,117.25,52.965,203.034c0,112.132,90.901,203.034,203.034,203.034c77.304,0,144.505-43.21,178.802-106.787   C405.729,316.628,371.762,326.621,335.448,326.621z" fill="#ffc36e"/><path d="M256,388.414c-102.216,0-185.379-83.164-185.379-185.379S153.784,17.655,256,17.655   s185.379,83.164,185.379,185.379S358.216,388.414,256,388.414z M256,35.31c-92.483,0-167.724,75.242-167.724,167.724   S163.518,370.759,256,370.759s167.724-75.242,167.724-167.724S348.483,35.31,256,35.31z" fill="#ffc36e"/></g><circle cx="256" cy="203" r="150" fill="#ffe3a8"/><path d="M335.448,326.621c-107.257,0-194.207-86.95-194.207-194.207c0-9.602,0.725-19.033,2.07-28.262  c-23.202,26.42-37.38,60.957-37.38,98.882c0,82.881,67.188,150.069,150.069,150.069c31.68,0,61.024-9.873,85.242-26.63  C339.313,326.53,337.391,326.621,335.448,326.621z" fill="#ffd782"/><path d="M373.029,322.953c-30.248,29.526-71.522,47.806-117.03,47.806  c-92.483,0-167.724-75.242-167.724-167.724c0-52.584,24.367-99.541,62.355-130.317c3.348-10.371,7.552-20.351,12.515-29.879  c-55.222,32.139-92.525,91.831-92.525,160.196c0,102.216,83.164,185.379,185.379,185.379c60.527,0,114.207-29.293,148.062-74.303  C394.082,317.882,383.716,320.857,373.029,322.953z" fill="#e1b464"/><g><path d="M384.299,89.878c-18.099-4.126-32.345-18.374-36.471-36.471c-0.311-1.363-2.115-1.363-2.425,0   c-4.126,18.099-18.374,32.345-36.471,36.471c-1.363,0.311-1.363,2.115,0,2.425c18.099,4.126,32.345,18.372,36.471,36.471   c0.311,1.363,2.115,1.363,2.425,0c4.126-18.099,18.374-32.345,36.471-36.471C385.662,91.993,385.662,90.189,384.299,89.878z" fill="#ffffff"/><path d="M321.578,142.345c-11.017-2.854-19.691-11.527-22.543-22.543c-0.287-1.107-1.719-1.107-2.006,0   c-2.854,11.017-11.527,19.691-22.543,22.543c-1.107,0.287-1.107,1.719,0,2.006c11.017,2.854,19.691,11.527,22.543,22.543   c0.287,1.107,1.719,1.107,2.006,0c2.854-11.017,11.527-19.691,22.543-22.543C322.686,144.064,322.686,142.632,321.578,142.345z" fill="#ffffff"/></g></g><g transform="matrix(0.1171875 0 0 0.1171875 259 167)" id="L1_64"><path d="M0,0.001 31.21,106.116 353.364,403.3 378.332,378.332z" fill="#aeb5ca"/><path d="M0,0.001 106.115,31.21 403.299,353.364 378.332,378.332z" fill="#c7cfe2"/><path d="M298.532,298.533 324.25,267.673 309.687,251.886 279.96,279.961z" fill="#aeb5ca"/><rect x="416px" y="363px" width="35px" height="141px" transform="matrix(-0.7071 0.7071 -0.7071 -0.7071 1048.968 434.5139)" fill="#d2aa82"/><g><path d="M490.688,465.721 478.205,503.173 465.72,490.689 478.205,453.236z" fill="#be876b"/><path d="M465.72,440.752 453.236,478.205 440.751,465.721 453.236,428.269z" fill="#be876b"/><path d="M440.751,415.784 428.268,453.236 415.784,440.752 428.268,403.3z" fill="#be876b"/><path d="M415.784,390.817 403.299,428.269 390.816,415.784 403.299,378.332z" fill="#be876b"/></g><path d="M509.415,484.446l-24.968,24.968c-3.447,3.447-9.037,3.447-12.484,0l-6.242-6.241  c-3.447-3.447-3.447-9.037,0-12.484l24.968-24.968c3.447-3.447,9.037-3.447,12.484,0l6.242,6.242  C512.862,475.41,512.862,480.999,509.415,484.446z" fill="#959cb3"/><path d="M403.299,365.848l-14.564,22.888L365.847,403.3l12.147,12.146c2.687,2.687,6.792,3.353,10.19,1.654  l11.382-5.69c5.125-2.562,9.281-6.718,11.843-11.843l5.691-11.382c1.699-3.399,1.033-7.503-1.654-10.19L403.299,365.848z" fill="#707487"/><path d="M232.103,232.103L232.103,232.103c-3.447,3.447-3.447,9.037,0,12.484l156.051,156.051l12.484-12.484  L244.587,232.103C241.14,228.656,235.55,228.656,232.103,232.103z" fill="#d7deed"/><path d="M273.004,329.169 298.532,298.533 279.96,279.961 250.165,308.101z" fill="#959cb3"/><path d="M292.858,305.342 304.207,291.725 286.381,273.897 273.54,286.024z" fill="#c7cfe2"/><path d="M431.665,327.845l-30.659,61.319c-2.562,5.126-6.718,9.281-11.843,11.843l-61.319,30.659  c-3.399,1.699-7.503,1.033-10.19-1.654l-3.74-3.74c-2.178-2.178-1.78-5.814,0.82-7.468l63.597-40.471l40.471-63.597  c1.654-2.599,5.29-2.998,7.468-0.82l3.74,3.74C432.697,320.342,433.364,324.446,431.665,327.845z" fill="#959cb3"/><path d="M512,0.001 480.79,106.116 158.636,403.3 133.668,378.332z" fill="#aeb5ca"/><path d="M512,0.001 405.885,31.21 108.701,353.364 133.668,378.332z" fill="#c7cfe2"/><rect x="59px" y="363px" width="35px" height="141px" transform="matrix(0.7071 0.7071 -0.7071 0.7071 329.9391 72.4797)" fill="#d2aa82"/><g><path d="M21.312,465.721 33.795,503.173 46.28,490.689 33.795,453.236z" fill="#be876b"/><path d="M46.28,440.752 58.764,478.205 71.249,465.721 58.764,428.269z" fill="#be876b"/><path d="M71.249,415.784 83.732,453.236 96.216,440.752 83.732,403.3z" fill="#be876b"/><path d="M96.216,390.817 108.701,428.269 121.184,415.784 108.701,378.332z" fill="#be876b"/></g><path d="M2.585,484.446l24.968,24.968c3.447,3.447,9.037,3.447,12.484,0l6.242-6.241  c3.447-3.447,3.447-9.037,0-12.484l-24.968-24.968c-3.447-3.447-9.037-3.447-12.484,0l-6.242,6.242  C-0.862,475.41-0.862,480.999,2.585,484.446z" fill="#959cb3"/><path d="M108.701,365.848l14.564,22.888l22.888,14.564l-12.146,12.146c-2.687,2.687-6.792,3.353-10.19,1.654  l-11.382-5.69c-5.126-2.562-9.281-6.718-11.843-11.843l-5.69-11.382c-1.699-3.399-1.033-7.503,1.654-10.19L108.701,365.848z" fill="#707487"/><path d="M279.897,232.103L279.897,232.103c3.447,3.447,3.447,9.037,0,12.484L123.846,400.638l-12.484-12.484  l156.051-156.051C270.86,228.656,276.45,228.656,279.897,232.103z" fill="#d7deed"/><path d="M80.335,327.845l30.659,61.319c2.562,5.126,6.718,9.281,11.843,11.843l61.318,30.659  c3.399,1.699,7.503,1.033,10.19-1.654l3.74-3.74c2.178-2.178,1.78-5.814-0.82-7.468l-63.597-40.471l-40.471-63.599  c-1.654-2.599-5.29-2.998-7.468-0.82l-3.74,3.74C79.303,320.342,78.636,324.446,80.335,327.845z" fill="#959cb3"/></g><g transform="matrix(0.1171875 0 0 0.1171875 305 39)" id="L1_65"><path d="M0,173.507C0,95.972,62.854,33.12,140.387,33.12c34.388,0,65.865,12.383,90.262,32.918  c14.664,12.343,36.039,12.343,50.702,0c24.396-20.536,55.873-32.918,90.262-32.918C449.146,33.12,512,95.972,512,173.507v-4.129  c0,136.147-165.574,258.941-230.406,301.804c-15.528,10.265-35.662,10.265-51.189,0C165.574,428.319,0,305.525,0,169.378" fill="#ff6464"/><path d="M114.822,182.728c-0.006,0.639-0.063,1.258-0.063,1.899v-4.457   C114.759,181.026,114.814,181.874,114.822,182.728c0.544-66.886,29.431-123.321,69.206-142.541   c-13.749-4.506-28.381-7.068-43.641-7.068c-76.94,0-139.346,61.913-140.298,138.628c1.909,135.199,165.863,256.821,230.317,299.434   c6.614,4.372,14.069,6.766,21.643,7.414C198.865,418.832,115.96,306.017,114.822,182.728z" fill="#d2555a"/><circle cx="449" cy="153" r="32" fill="#ff8b8b"/><circle cx="408" cy="92" r="20" fill="#ffc1c1"/></g><g transform="matrix(0.1171877309679985 0 0 0.1171877309679985 200 16)" id="L1_66"><path d="M406.068,150.068H109.444c-58.325,0-108.359,45.63-109.426,103.946  C-1.07,313.426,46.766,361.93,105.93,361.93c28.724,0,54.702-11.499,73.772-30.073c3.322-3.235,7.648-5.237,12.286-5.237h128.044  c4.626,0,8.937,1.995,12.249,5.224c21.57,21.017,51.988,32.982,85.218,29.484c48.802-5.138,88.484-44.561,93.839-93.34  C518.352,204.114,468.522,150.068,406.068,150.068z" fill="#e4eaf6"/><circle cx="406" cy="255" r="88" fill="#707487"/><circle cx="105" cy="255" r="57" fill="#d7deed"/><path d="M140.689,241.103h-14.897c-2.742,0-4.966-2.223-4.966-4.966v-14.897c0-2.742-2.223-4.966-4.966-4.966  H95.999c-2.742,0-4.966,2.223-4.966,4.966v14.897c0,2.742-2.223,4.966-4.966,4.966H71.172c-2.742,0-4.966,2.223-4.966,4.966v19.862  c0,2.742,2.223,4.966,4.966,4.966h14.897c2.742,0,4.966,2.223,4.966,4.966v14.897c0,2.742,2.223,4.966,4.966,4.966h19.862  c2.742,0,4.966-2.223,4.966-4.966v-14.897c0-2.742,2.223-4.966,4.966-4.966h14.897c2.742,0,4.966-2.223,4.966-4.966v-19.862  C145.655,243.326,143.431,241.103,140.689,241.103z" fill="#707487"/><circle cx="105" cy="255" r="8" fill="#5b5d6e"/><g><path d="M211.867,291.31c-3.242,0-6.354-1.784-7.905-4.879c-2.182-4.362-0.414-9.664,3.948-11.844   l17.655-8.828c4.362-2.177,9.664-0.414,11.844,3.948c2.18,4.362,0.414,9.664-3.948,11.844l-17.655,8.828   C214.54,291.012,213.194,291.31,211.867,291.31z" fill="#707487"/><path d="M264.833,291.31c-3.242,0-6.354-1.784-7.905-4.879c-2.182-4.362-0.414-9.664,3.948-11.844   l17.655-8.828c4.353-2.177,9.655-0.414,11.844,3.948c2.182,4.362,0.414,9.664-3.948,11.844l-17.655,8.828   C267.505,291.012,266.16,291.31,264.833,291.31z" fill="#707487"/></g><g><path d="M286.896,203.034h-79.448c-7.313,0-13.241-5.929-13.241-13.241l0,0   c0-7.313,5.929-13.241,13.241-13.241h79.448c7.313,0,13.241,5.929,13.241,13.241l0,0   C300.137,197.105,294.209,203.034,286.896,203.034z" fill="#d7deed"/><path d="M357.526,275.861c-5.181,0-10.311-2.268-13.793-6.625c-6.094-7.616-4.862-18.724,2.759-24.814   l44.138-35.31c7.604-6.099,18.724-4.862,24.81,2.754c6.094,7.616,4.862,18.724-2.759,24.814l-44.138,35.31   C365.293,274.598,361.396,275.861,357.526,275.861z" fill="#d7deed"/><path d="M410.491,306.758c-5.181,0-10.311-2.268-13.793-6.625c-6.094-7.616-4.862-18.724,2.759-24.814   l44.138-35.31c7.595-6.103,18.733-4.853,24.81,2.754c6.094,7.616,4.862,18.724-2.759,24.814l-44.138,35.31   C418.258,305.494,414.362,306.758,410.491,306.758z" fill="#d7deed"/></g><circle cx="357" cy="258" r="17" fill="#00dcc8"/><circle cx="401" cy="222" r="17" fill="#82b9ff"/><circle cx="454" cy="253" r="17" fill="#ff6464"/><circle cx="410" cy="289" r="17" fill="#ffcd46"/></g><g transform="matrix(0.1171872690320015 0 0 0.1171872690320015 17 272.00000027179664)" id="L1_67"><path d="M379.867,125.133c-2.259,0-4.517-0.862-6.241-2.586c-3.448-3.448-3.448-9.035,0-12.483l24.275-24.275  c9.517-9.535,25.034-9.535,34.551,0c2.638,2.638,6.948,2.638,9.586,0l11.034-11.034c3.448-3.448,9.035-3.448,12.483,0  c3.448,3.448,3.448,9.035,0,12.483l-11.034,11.034c-9.517,9.535-25.034,9.535-34.551,0c-2.569-2.552-7.017-2.552-9.586,0  l-24.275,24.275C384.384,124.271,382.126,125.133,379.867,125.133z" fill="#d2aa82"/><path d="M380.178,178.408l-62.412-62.411l31.652-31.652c6.894-6.894,18.073-6.894,24.967,0l37.444,37.444  c6.894,6.894,6.894,18.073,0,24.967L380.178,178.408z" fill="#464655"/><circle cx="216" cy="279" r="216" fill="#5b5d6e"/><path d="M328.409,424.084c-119.442,0-216.269-96.827-216.269-216.269c0-52.024,18.381-99.748,48.987-137.06  C68.399,95.139,0,179.523,0,279.904c0,119.442,96.827,216.269,216.269,216.269c67.417,0,127.62-30.857,167.282-79.208  C365.943,421.594,347.469,424.084,328.409,424.084z" fill="#464655"/><circle cx="347" cy="208" r="32" fill="#707487"/><circle cx="306" cy="147" r="20" fill="#aeb5ca"/><g><path d="M443.839,70.531c-1.44,0-2.905-0.353-4.258-1.099l-18.37-10.134   c-4.267-2.354-5.818-7.724-3.466-11.991c2.354-4.262,7.715-5.827,12-3.466l18.37,10.134c4.267,2.354,5.818,7.724,3.466,11.991   C449.968,68.885,446.952,70.531,443.839,70.531z" fill="#ffd782"/><path d="M497.562,111.156c-2.198,0-4.388-0.814-6.103-2.448l-14.801-14.159   c-3.525-3.371-3.647-8.956-0.276-12.483c3.362-3.525,8.948-3.642,12.483-0.276l14.801,14.159c3.525,3.371,3.647,8.956,0.276,12.483   C502.208,110.241,499.889,111.156,497.562,111.156z" fill="#ffd782"/><path d="M482.217,73.272c-3.207,0-6.302-1.75-7.862-4.802c-2.224-4.341-0.509-9.659,3.828-11.884   l20.965-10.741c4.345-2.229,9.655-0.509,11.879,3.832c2.224,4.341,0.509,9.659-3.828,11.884l-20.965,10.741   C484.941,72.962,483.571,73.272,482.217,73.272z" fill="#ffd782"/><path d="M463.976,57.566c-4.655,0-8.551-3.651-8.81-8.357l-1.284-24.09   c-0.258-4.866,3.482-9.026,8.345-9.284c5.181-0.194,9.035,3.482,9.293,8.344l1.284,24.09c0.258,4.866-3.482,9.026-8.345,9.284   C464.295,57.562,464.132,57.566,463.976,57.566z" fill="#ffd782"/></g></g><g transform="matrix(0.1171875 0 0 0.1171875 130.00000145912168 290)" id="L1_68"><path d="M317.033,0H173.568c-8.877,0-16.374,6.592-17.51,15.395l-31.322,242.74  c-0.998,7.729,5.747,14.229,13.433,12.948l74.547-12.425c7.837-1.306,14.643,5.462,13.382,13.305l-37.807,235.108  c-0.77,4.62,5.437,6.867,7.803,2.825L386.06,185.373c4.04-6.902-1.909-15.355-9.769-13.88l-112.936,21.175  c-3.539,0.663-6.408-2.856-5.045-6.188l69.638-170.224C331.12,8.499,325.414,0,317.033,0z" fill="#ffd782"/><path d="M195.424,217.514L232.927,0h-59.36c-8.877,0-16.374,6.591-17.51,15.395l-31.322,242.741  c-0.998,7.729,5.747,14.229,13.433,12.948l74.547-12.425c7.837-1.307,14.643,5.462,13.382,13.305L188.29,507.073  c-0.362,2.173,0.838,3.785,2.436,4.501l92.227-268.995c3.524-10.279-4.716-20.776-15.539-19.793l-61.929,5.63  C199.365,228.972,194.38,223.572,195.424,217.514z" fill="#ffc36e"/></g><g transform="matrix(0.1171875 0 0 0.1171875 143.00000041484827 64)" id="L1_69"><path d="M273.133,256c0-36.414,91.586-66.207,97.103-132.414c3.133-37.586-8.828-61.793-8.828-61.793H150.593  c0,0-11.96,24.207-8.828,61.793c5.517,66.207,97.103,96,97.103,132.414s-91.586,66.207-97.103,132.414  c-3.133,37.586,8.828,61.793,8.828,61.793h210.816c0,0,11.96-24.207,8.828-61.793C364.719,322.207,273.133,292.414,273.133,256z" fill="#e4eaf6"/><circle cx="276" cy="155" r="32" fill="#eff2f8"/><path d="M212.084,388.414c2.334-66.207,41.082-96,41.082-132.414s-38.749-66.207-41.082-132.414  c-1.325-37.586,3.735-61.793,3.735-61.793h-65.226c0,0-11.96,24.207-8.828,61.793c5.517,66.207,97.103,96,97.103,132.414  s-91.586,66.207-97.103,132.414c-3.133,37.586,8.828,61.793,8.828,61.793h65.226C215.82,450.207,210.759,425.999,212.084,388.414z" fill="#d7deed"/><path d="M398.833,44.138H113.168c-4.207,0-7.831-2.97-8.657-7.096l-5.297-26.483  C98.124,5.097,102.301,0,107.871,0h296.257c5.57,0,9.749,5.097,8.657,10.559l-5.297,26.483  C406.663,41.167,403.041,44.138,398.833,44.138z" fill="#d2aa82"/><path d="M363.768,61.793H148.235c-4.285,0-8.203-2.421-10.119-6.254l-5.702-11.401h247.172l-5.7,11.401  C371.97,59.372,368.052,61.793,363.768,61.793z" fill="#be876b"/><g><path d="M352.642,389.88c-0.295-3.532-0.954-6.955-1.881-10.294h-15.311   c-43.879,0-79.448-35.57-79.448-79.448c0,43.879-35.57,79.448-79.448,79.448h-15.311c-0.926,3.339-1.587,6.762-1.881,10.294   c-1.557,18.682,1.167,33.565,3.682,42.671h185.922C351.47,423.471,354.201,408.579,352.642,389.88z" fill="#e1be91"/><path d="M169.148,150.069c10.557,17.137,27.846,31.747,43.763,45.153   c20.364,17.152,39.703,33.439,43.091,54.289c3.388-20.85,22.727-37.137,43.091-54.289c15.917-13.406,33.206-28.018,43.763-45.153   H169.148z" fill="#e1be91"/></g><g><path d="M215.215,150.069h-46.067c10.557,17.137,27.846,31.747,43.763,45.153   c12.984,10.936,25.505,21.533,33.788,33.173C237.741,206.968,221.961,183.874,215.215,150.069z" fill="#d2aa82"/><path d="M212.084,388.414c0.226-6.397,0.875-12.36,1.714-18.115c-11.113,5.911-23.78,9.288-37.246,9.288   h-15.311c-0.926,3.339-1.587,6.762-1.881,10.294c-1.557,18.682,1.167,33.565,3.682,42.671h50.332   C212.311,421.842,211.438,406.735,212.084,388.414z" fill="#d2aa82"/></g><rect x="114px" y="44px" width="17px" height="423px" fill="#c89876"/><circle cx="123" cy="256" r="17" fill="#be876b"/><rect x="379px" y="44px" width="17px" height="423px" fill="#c89876"/><circle cx="388" cy="256" r="17" fill="#be876b"/><path d="M203.554,37.042l-5.297-26.483C197.164,5.097,201.342,0,206.913,0h-99.041  c-5.57,0-9.748,5.097-8.657,10.559l5.297,26.483c0.825,4.126,4.449,7.096,8.658,7.096h99.04  C208.002,44.138,204.378,41.167,203.554,37.042z" fill="#c89876"/><path d="M398.833,467.862H113.168c-4.207,0-7.831,2.97-8.657,7.096l-5.297,26.483  C98.122,506.903,102.3,512,107.871,512h296.257c5.57,0,9.749-5.097,8.657-10.559l-5.297-26.483  C406.663,470.833,403.041,467.862,398.833,467.862z" fill="#d2aa82"/><path d="M148.233,450.207h215.533c4.285,0,8.203,2.421,10.119,6.254l5.702,11.401H132.414l5.7-11.401  C140.031,452.628,143.949,450.207,148.233,450.207z" fill="#be876b"/><path d="M203.554,474.958l-5.297,26.483c-1.092,5.462,3.085,10.559,8.657,10.559h-99.042  c-5.57,0-9.748-5.097-8.657-10.559l5.297-26.483c0.825-4.126,4.448-7.096,8.657-7.096h99.04  C208.002,467.862,204.378,470.833,203.554,474.958z" fill="#c89876"/><circle cx="328" cy="103" r="20" fill="#ffffff"/><path d="M270.76,187.076c17.366,3.402,34.201-7.919,37.602-25.284c0.782-3.994,0.704-7.942,0.034-11.723  h-62.976C242.392,167.221,253.594,183.714,270.76,187.076z" fill="#ead2b2"/></g></defs><g fi:class="KUsePattern"><pattern id="pattern_L1_58" width="350" height="350" patternUnits="userSpaceOnUse"><use xlink:href="#L1_58" x="-350" y="-350"/><use xlink:href="#L1_58" x="0" y="-350"/><use xlink:href="#L1_58" x="350" y="-350"/><use xlink:href="#L1_58" x="-350" y="0"/><use xlink:href="#L1_58" x="0" y="0"/><use xlink:href="#L1_58" x="350" y="0"/><use xlink:href="#L1_58" x="-350" y="350"/><use xlink:href="#L1_58" x="0" y="350"/><use xlink:href="#L1_58" x="350" y="350"/></pattern><rect x="0" y="0" width="100%" height="100%" fill="url(#pattern_L1_58)"/></g><g fi:class="KUsePattern"><pattern id="pattern_L1_59" width="350" height="350" patternUnits="userSpaceOnUse"><use xlink:href="#L1_59" x="-350" y="-350"/><use xlink:href="#L1_59" x="0" y="-350"/><use xlink:href="#L1_59" x="350" y="-350"/><use xlink:href="#L1_59" x="-350" y="0"/><use xlink:href="#L1_59" x="0" y="0"/><use xlink:href="#L1_59" x="350" y="0"/><use xlink:href="#L1_59" x="-350" y="350"/><use xlink:href="#L1_59" x="0" y="350"/><use xlink:href="#L1_59" x="350" y="350"/></pattern><rect x="0" y="0" width="100%" height="100%" fill="url(#pattern_L1_59)"/></g><g fi:class="KUsePattern"><pattern id="pattern_L1_60" width="350" height="350" patternUnits="userSpaceOnUse"><use xlink:href="#L1_60" x="-350" y="-350"/><use xlink:href="#L1_60" x="0" y="-350"/><use xlink:href="#L1_60" x="350" y="-350"/><use xlink:href="#L1_60" x="-350" y="0"/><use xlink:href="#L1_60" x="0" y="0"/><use xlink:href="#L1_60" x="350" y="0"/><use xlink:href="#L1_60" x="-350" y="350"/><use xlink:href="#L1_60" x="0" y="350"/><use xlink:href="#L1_60" x="350" y="350"/></pattern><rect x="0" y="0" width="100%" height="100%" fill="url(#pattern_L1_60)"/></g><g fi:class="KUsePattern"><pattern id="pattern_L1_61" width="350" height="350" patternUnits="userSpaceOnUse"><use xlink:href="#L1_61" x="-350" y="-350"/><use xlink:href="#L1_61" x="0" y="-350"/><use xlink:href="#L1_61" x="350" y="-350"/><use xlink:href="#L1_61" x="-350" y="0"/><use xlink:href="#L1_61" x="0" y="0"/><use xlink:href="#L1_61" x="350" y="0"/><use xlink:href="#L1_61" x="-350" y="350"/><use xlink:href="#L1_61" x="0" y="350"/><use xlink:href="#L1_61" x="350" y="350"/></pattern><rect x="0" y="0" width="100%" height="100%" fill="url(#pattern_L1_61)"/></g><g fi:class="KUsePattern"><pattern id="pattern_L1_62" width="350" height="350" patternUnits="userSpaceOnUse"><use xlink:href="#L1_62" x="-350" y="-350"/><use xlink:href="#L1_62" x="0" y="-350"/><use xlink:href="#L1_62" x="350" y="-350"/><use xlink:href="#L1_62" x="-350" y="0"/><use xlink:href="#L1_62" x="0" y="0"/><use xlink:href="#L1_62" x="350" y="0"/><use xlink:href="#L1_62" x="-350" y="350"/><use xlink:href="#L1_62" x="0" y="350"/><use xlink:href="#L1_62" x="350" y="350"/></pattern><rect x="0" y="0" width="100%" height="100%" fill="url(#pattern_L1_62)"/></g><g fi:class="KUsePattern"><pattern id="pattern_L1_63" width="350" height="350" patternUnits="userSpaceOnUse"><use xlink:href="#L1_63" x="-350" y="-350"/><use xlink:href="#L1_63" x="0" y="-350"/><use xlink:href="#L1_63" x="350" y="-350"/><use xlink:href="#L1_63" x="-350" y="0"/><use xlink:href="#L1_63" x="0" y="0"/><use xlink:href="#L1_63" x="350" y="0"/><use xlink:href="#L1_63" x="-350" y="350"/><use xlink:href="#L1_63" x="0" y="350"/><use xlink:href="#L1_63" x="350" y="350"/></pattern><rect x="0" y="0" width="100%" height="100%" fill="url(#pattern_L1_63)"/></g><g fi:class="KUsePattern"><pattern id="pattern_L1_64" width="350" height="350" patternUnits="userSpaceOnUse"><use xlink:href="#L1_64" x="-350" y="-350"/><use xlink:href="#L1_64" x="0" y="-350"/><use xlink:href="#L1_64" x="350" y="-350"/><use xlink:href="#L1_64" x="-350" y="0"/><use xlink:href="#L1_64" x="0" y="0"/><use xlink:href="#L1_64" x="350" y="0"/><use xlink:href="#L1_64" x="-350" y="350"/><use xlink:href="#L1_64" x="0" y="350"/><use xlink:href="#L1_64" x="350" y="350"/></pattern><rect x="0" y="0" width="100%" height="100%" fill="url(#pattern_L1_64)"/></g><g fi:class="KUsePattern"><pattern id="pattern_L1_65" width="350" height="350" patternUnits="userSpaceOnUse"><use xlink:href="#L1_65" x="-350" y="-350"/><use xlink:href="#L1_65" x="0" y="-350"/><use xlink:href="#L1_65" x="350" y="-350"/><use xlink:href="#L1_65" x="-350" y="0"/><use xlink:href="#L1_65" x="0" y="0"/><use xlink:href="#L1_65" x="350" y="0"/><use xlink:href="#L1_65" x="-350" y="350"/><use xlink:href="#L1_65" x="0" y="350"/><use xlink:href="#L1_65" x="350" y="350"/></pattern><rect x="0" y="0" width="100%" height="100%" fill="url(#pattern_L1_65)"/></g><g fi:class="KUsePattern"><pattern id="pattern_L1_66" width="350" height="350" patternUnits="userSpaceOnUse"><use xlink:href="#L1_66" x="-350" y="-350"/><use xlink:href="#L1_66" x="0" y="-350"/><use xlink:href="#L1_66" x="350" y="-350"/><use xlink:href="#L1_66" x="-350" y="0"/><use xlink:href="#L1_66" x="0" y="0"/><use xlink:href="#L1_66" x="350" y="0"/><use xlink:href="#L1_66" x="-350" y="350"/><use xlink:href="#L1_66" x="0" y="350"/><use xlink:href="#L1_66" x="350" y="350"/></pattern><rect x="0" y="0" width="100%" height="100%" fill="url(#pattern_L1_66)"/></g><g fi:class="KUsePattern"><pattern id="pattern_L1_67" width="350" height="350" patternUnits="userSpaceOnUse"><use xlink:href="#L1_67" x="-350" y="-350"/><use xlink:href="#L1_67" x="0" y="-350"/><use xlink:href="#L1_67" x="350" y="-350"/><use xlink:href="#L1_67" x="-350" y="0"/><use xlink:href="#L1_67" x="0" y="0"/><use xlink:href="#L1_67" x="350" y="0"/><use xlink:href="#L1_67" x="-350" y="350"/><use xlink:href="#L1_67" x="0" y="350"/><use xlink:href="#L1_67" x="350" y="350"/></pattern><rect x="0" y="0" width="100%" height="100%" fill="url(#pattern_L1_67)"/></g><g fi:class="KUsePattern"><pattern id="pattern_L1_68" width="350" height="350" patternUnits="userSpaceOnUse"><use xlink:href="#L1_68" x="-350" y="-350"/><use xlink:href="#L1_68" x="0" y="-350"/><use xlink:href="#L1_68" x="350" y="-350"/><use xlink:href="#L1_68" x="-350" y="0"/><use xlink:href="#L1_68" x="0" y="0"/><use xlink:href="#L1_68" x="350" y="0"/><use xlink:href="#L1_68" x="-350" y="350"/><use xlink:href="#L1_68" x="0" y="350"/><use xlink:href="#L1_68" x="350" y="350"/></pattern><rect x="0" y="0" width="100%" height="100%" fill="url(#pattern_L1_68)"/></g><g fi:class="KUsePattern"><pattern id="pattern_L1_69" width="350" height="350" patternUnits="userSpaceOnUse"><use xlink:href="#L1_69" x="-350" y="-350"/><use xlink:href="#L1_69" x="0" y="-350"/><use xlink:href="#L1_69" x="350" y="-350"/><use xlink:href="#L1_69" x="-350" y="0"/><use xlink:href="#L1_69" x="0" y="0"/><use xlink:href="#L1_69" x="350" y="0"/><use xlink:href="#L1_69" x="-350" y="350"/><use xlink:href="#L1_69" x="0" y="350"/><use xlink:href="#L1_69" x="350" y="350"/></pattern><rect x="0" y="0" width="100%" height="100%" fill="url(#pattern_L1_69)"/></g></svg>